# xmcd CD database file
#
# Track frame offsets:
#	150
#	16764
#	33868
#	50275
#	58975
#	75157
#	90035
#	101062
#	112885
#	123463
#
# Disc length: 1833 seconds
#
# Revision: 0
# Processed by: cddbd v1.5.1PL2 Copyright (c) Steve Scherf et al.
# Submitted via: CDex 1.51
#
DISCID=6607270a
DTITLE=Rhonda Towns - I Wanna Be Loved By You
DYEAR=2005
DGENRE=Country
TTITLE0=Somethin' Better
TTITLE1=I Wanna Be Loved By You
TTITLE2=Those Were The Nights
TTITLE3=The Lord's Prayer
TTITLE4=Storm Before The Calm
TTITLE5=Waiting For You
TTITLE6=Plenty More Love
TTITLE7=I've Heard The Wind Blow Before
TTITLE8=Go On With Yourself
TTITLE9=Slow Rain
EXTD=YEAR: 2005
EXTT0=
EXTT1=
EXTT2=
EXTT3=
EXTT4=
EXTT5=
EXTT6=
EXTT7=
EXTT8=
EXTT9=
PLAYORDER=
